<svg width="34" height="34" viewBox="0 0 34 34" fill="none" xmlns="http://www.w3.org/2000/svg">
<circle cx="17" cy="17" r="17" fill="#BBBBBB"/>
<path d="M8.5 12.4807C8.5 12.2974 8.60033 12.1287 8.76145 12.0413L16.7615 7.69842C16.9102 7.61766 17.0898 7.61766 17.2385 7.69842L25.2385 12.0413C25.3997 12.1287 25.5 12.2974 25.5 12.4807V25C25.5 25.2761 25.2761 25.5 25 25.5H9C8.72386 25.5 8.5 25.2761 8.5 25V12.4807Z" fill="white" stroke="#222222"/>
<g filter="url(#filter0_d)">
<path d="M13.0046 17.5008L15.8135 12.0237C15.8215 12.0057 15.8375 11.9966 15.8535 12.0011L19.9189 12.781C19.9509 12.7855 19.9629 12.8351 19.9389 12.8622L16.9659 16.2792C16.9419 16.3062 16.9539 16.3513 16.9859 16.3603L20.5672 17.0455C20.6032 17.05 20.6112 17.1041 20.5832 17.1266L14.2547 22.6567C14.2187 22.6883 14.1746 22.6387 14.1987 22.5936L16.2857 18.2536C16.3017 18.2266 16.2857 18.1905 16.2577 18.186L13.0366 17.5684C13.0046 17.5639 12.9926 17.5279 13.0046 17.5008Z" fill="#00D865"/>
<path d="M17 12.2248L15.8544 12.0011C15.8384 11.9966 15.8224 12.0056 15.8144 12.0236L13.0064 17.4867C12.9904 17.5136 13.0064 17.5496 13.0344 17.5586L14.144 17.7778L17 12.2248Z" fill="#00B856"/>
<path d="M14.2626 22.6572C14.2269 22.6886 14.1831 22.6393 14.207 22.5945L16.2796 18.2809C16.2915 18.2585 16.2836 18.2406 16.2677 18.2227L17.4002 18.4422L14.2626 22.6572Z" fill="#00B856"/>
</g>
<defs>
<filter id="filter0_d" x="13" y="12" width="8" height="11.6671" filterUnits="userSpaceOnUse" color-interpolation-filters="sRGB">
<feFlood flood-opacity="0" result="BackgroundImageFix"/>
<feColorMatrix in="SourceAlpha" type="matrix" values="0 0 0 0 0 0 0 0 0 0 0 0 0 0 0 0 0 0 127 0" result="hardAlpha"/>
<feOffset dy="1"/>
<feColorMatrix type="matrix" values="0 0 0 0 0 0 0 0 0 0 0 0 0 0 0 0 0 0 0.14 0"/>
<feBlend mode="normal" in2="BackgroundImageFix" result="effect1_dropShadow"/>
<feBlend mode="normal" in="SourceGraphic" in2="effect1_dropShadow" result="shape"/>
</filter>
</defs>
</svg>
