<svg width="25" height="24" viewBox="0 0 25 24" fill="none" xmlns="http://www.w3.org/2000/svg">
<path d="M12.25 0.721688C12.4047 0.632371 12.5953 0.632372 12.75 0.721688L22.1423 6.14434C22.297 6.23365 22.3923 6.39872 22.3923 6.57735V17.4226C22.3923 17.6013 22.297 17.7663 22.1423 17.8557L12.75 23.2783C12.5953 23.3676 12.4047 23.3676 12.25 23.2783L2.8577 17.8557C2.703 17.7663 2.6077 17.6013 2.6077 17.4226V6.57735C2.6077 6.39872 2.703 6.23365 2.8577 6.14434L12.25 0.721688Z" fill="white" stroke="#222222"/>
<path d="M2.5 6.5L11.9855 12.1913C12.3022 12.3813 12.6978 12.3813 13.0145 12.1913L22.5 6.5" stroke="#222222"/>
<path d="M12.5 12.5V23" stroke="#222222"/>
<path d="M14.5038 15.6206L16.598 12.0189C16.6039 12.0071 16.6159 12.0011 16.6279 12.004L19.6787 12.5052C19.7028 12.508 19.7119 12.5406 19.6939 12.5584L17.472 14.8085C17.4541 14.8264 17.4632 14.8559 17.4872 14.8617L20.1747 15.302C20.2017 15.3049 20.2078 15.3404 20.1869 15.3552L15.4532 19.0009C15.4263 19.0217 15.3931 18.9893 15.411 18.9596L16.9664 16.1061C16.9783 16.0883 16.9662 16.0646 16.9452 16.0618L14.528 15.6649C14.504 15.662 14.4949 15.6384 14.5038 15.6206Z" fill="#00D262"/>
<path d="M17.4883 12.1478L16.6285 12.004C16.6165 12.0011 16.6046 12.0071 16.5986 12.0189L14.5051 15.6113C14.4932 15.6291 14.5053 15.6526 14.5263 15.6585L15.359 15.7994L17.4883 12.1478Z" fill="#00B856"/>
<path d="M15.4591 19.0008C15.4323 19.0215 15.3994 18.9893 15.4172 18.9598L16.9618 16.1236C16.9707 16.1089 16.9647 16.0971 16.9527 16.0854L17.8026 16.2265L15.4591 19.0008Z" fill="#00B856"/>
</svg>
